<?xml version="1.0" standalone="no"?>
<!DOCTYPE svg PUBLIC "-//W3C//DTD SVG 20010904//EN"
 "http://www.w3.org/TR/2001/REC-SVG-20010904/DTD/svg10.dtd">
<svg version="1.0" xmlns="http://www.w3.org/2000/svg"
 width="200.000000pt" height="200.000000pt" viewBox="0 0 200.000000 200.000000"
 preserveAspectRatio="xMidYMid meet">
<metadata>
Created by potrace 1.14, written by Peter Selinger 2001-2017
</metadata>
<g transform="translate(0.000000,200.000000) scale(0.100000,-0.100000)"
fill="#000000" stroke="none">
<path d="M814 1267 c-2 -7 -3 -69 -2 -138 l3 -124 78 -3 c74 -3 77 -4 77 -27
0 -13 -6 -26 -12 -28 -7 -3 16 -5 52 -5 36 0 59 2 53 5 -7 2 -13 15 -13 28 0
23 3 24 78 27 l77 3 0 135 0 135 -193 3 c-153 2 -194 0 -198 -11z m381 -127
l0 -125 -187 -3 -188 -2 0 130 0 130 188 -2 187 -3 0 -125z m-155 -165 c0 -21
-5 -25 -30 -25 -25 0 -30 4 -30 25 0 21 5 25 30 25 25 0 30 -4 30 -25z"/>
<path d="M1006 1144 c-15 -36 -25 -68 -23 -70 2 -2 16 26 30 63 15 37 25 68
23 70 -2 2 -16 -26 -30 -63z"/>
<path d="M898 1167 c-21 -12 -38 -24 -38 -27 0 -7 82 -51 87 -47 2 2 -13 12
-32 23 -19 10 -35 21 -35 24 0 3 17 15 38 27 20 12 33 22 27 22 -5 0 -27 -10
-47 -22z"/>
<path d="M1073 1183 c4 -6 20 -16 37 -23 16 -7 30 -16 30 -19 0 -4 -16 -15
-36 -25 -20 -9 -34 -19 -32 -21 6 -6 88 37 88 46 0 3 -17 14 -37 24 -55 28
-56 29 -50 18z"/>
<path d="M500 808 c3 -55 9 -82 18 -84 7 -1 8 0 2 3 -5 2 -10 40 -10 84 0 43
-3 79 -7 79 -5 0 -6 -37 -3 -82z"/>
<path d="M1280 803 c2 -49 6 -73 8 -56 3 31 32 60 46 46 3 -3 6 -21 6 -40 0
-25 4 -33 18 -32 10 0 12 3 5 6 -7 2 -13 20 -13 38 0 36 -15 48 -42 33 -16 -8
-18 -3 -18 42 0 27 -3 50 -7 50 -5 0 -6 -39 -3 -87z"/>
<path d="M357 799 c-9 -6 -15 -14 -12 -20 4 -5 13 -3 21 5 17 17 44 11 44 -10
0 -8 -10 -18 -22 -23 l-23 -8 23 -7 c16 -6 22 -14 20 -29 -4 -28 -38 -35 -55
-11 -11 15 -13 15 -13 2 0 -17 20 -28 50 -28 24 0 46 38 32 52 -6 6 -8 26 -5
44 3 21 1 34 -5 34 -6 0 -16 2 -24 5 -7 2 -21 0 -31 -6z"/>
<path d="M630 800 c-7 -4 -18 -6 -24 -4 -8 3 -10 -9 -7 -38 5 -40 6 -41 9 -11
2 20 11 37 23 43 21 12 25 6 31 -39 2 -14 9 -26 16 -27 7 -1 8 0 2 3 -5 2 -10
20 -10 38 0 34 -17 49 -40 35z"/>
<path d="M728 803 c-23 -6 -34 -49 -18 -68 14 -17 56 -20 65 -5 4 7 -2 9 -17
5 -16 -4 -29 -1 -37 9 -12 14 -9 16 23 16 25 0 36 4 36 15 0 18 -29 33 -52 28z
m23 -31 c-28 -4 -40 6 -21 18 9 6 20 4 29 -3 12 -10 11 -13 -8 -15z"/>
<path d="M813 795 c-20 -15 -11 -31 20 -37 10 -1 18 -7 18 -13 0 -16 -33 -18
-42 -3 -7 10 -9 9 -9 -5 0 -15 7 -18 32 -15 46 4 49 32 6 47 -25 9 -30 14 -19
21 9 5 22 5 33 -1 11 -6 18 -6 18 -1 0 16 -38 20 -57 7z"/>
<path d="M980 800 c-6 -4 -22 -6 -34 -4 -11 2 -15 2 -8 -2 7 -3 13 -29 14 -67
0 -34 3 -48 5 -31 3 26 8 30 27 27 29 -6 50 20 42 51 -7 27 -26 38 -46 26z
m35 -20 c11 -18 -6 -50 -26 -50 -22 0 -34 22 -25 45 6 17 42 20 51 5z"/>
<path d="M1066 798 c-19 -11 -21 -49 -4 -66 14 -14 44 -16 52 -4 2 4 -7 8 -21
7 -14 0 -28 6 -30 13 -3 8 7 12 30 12 30 0 34 3 30 19 -6 23 -34 32 -57 19z
m44 -19 c0 -5 -12 -9 -26 -9 -22 0 -24 2 -14 14 12 15 40 11 40 -5z"/>
<path d="M1165 799 c-16 -3 -24 -7 -17 -8 7 -1 13 -17 14 -38 l1 -38 4 35 c5
37 23 56 35 37 6 -9 8 -9 8 0 0 17 -11 20 -45 12z"/>
<path d="M1408 803 c-23 -6 -34 -49 -18 -68 26 -31 70 -11 70 32 0 25 -25 42
-52 36z m40 -47 c-4 -30 -44 -34 -53 -5 -5 16 -2 26 10 36 23 16 47 -1 43 -31z"/>
<path d="M1630 800 c-7 -4 -20 -6 -29 -3 -11 3 -12 2 -4 -4 6 -4 13 -24 16
-43 l4 -35 1 36 c2 36 26 60 36 36 3 -9 5 -9 5 0 1 17 -13 23 -29 13z"/>
<path d="M548 760 c2 -22 8 -40 13 -40 5 0 9 18 9 40 0 26 -5 40 -13 40 -9 0
-11 -12 -9 -40z"/>
<path d="M1489 763 c6 -37 7 -38 51 -39 25 0 39 1 33 3 -7 3 -14 21 -14 41
l-2 37 -6 -35 c-4 -26 -11 -35 -26 -35 -15 0 -21 8 -23 33 -2 17 -7 32 -11 32
-4 0 -5 -17 -2 -37z"/>
</g>
</svg>
